<mxfile host="app.diagrams.net" agent="Mozilla/5.0 (Windows NT 10.0; Win64; x64) AppleWebKit/537.36 (KHTML, like Gecko) Chrome/136.0.0.0 Safari/537.36" version="27.0.6">
  <diagram name="Page-1" id="M40SrdRuiBj5_GZlAtrQ">
    <mxGraphModel dx="872" dy="473" grid="1" gridSize="10" guides="1" tooltips="1" connect="1" arrows="1" fold="1" page="1" pageScale="1" pageWidth="850" pageHeight="1100" math="0" shadow="0">
      <root>
        <mxCell id="0" />
        <mxCell id="1" parent="0" />
        <mxCell id="0J3DgRATpNI2_s6_5cfx-8" style="edgeStyle=orthogonalEdgeStyle;rounded=0;orthogonalLoop=1;jettySize=auto;html=1;exitX=1;exitY=0.5;exitDx=0;exitDy=0;" edge="1" parent="1" source="0J3DgRATpNI2_s6_5cfx-1" target="0J3DgRATpNI2_s6_5cfx-2">
          <mxGeometry relative="1" as="geometry">
            <mxPoint x="160" y="260" as="sourcePoint" />
            <Array as="points" />
          </mxGeometry>
        </mxCell>
        <mxCell id="0J3DgRATpNI2_s6_5cfx-1" value="IMAGE" style="rounded=1;whiteSpace=wrap;html=1;" vertex="1" parent="1">
          <mxGeometry x="40" y="100" width="80" height="110" as="geometry" />
        </mxCell>
        <mxCell id="0J3DgRATpNI2_s6_5cfx-9" style="edgeStyle=orthogonalEdgeStyle;rounded=0;orthogonalLoop=1;jettySize=auto;html=1;entryX=0;entryY=0.5;entryDx=0;entryDy=0;" edge="1" parent="1" source="0J3DgRATpNI2_s6_5cfx-2" target="0J3DgRATpNI2_s6_5cfx-3">
          <mxGeometry relative="1" as="geometry" />
        </mxCell>
        <mxCell id="0J3DgRATpNI2_s6_5cfx-2" value="GAP" style="rounded=0;whiteSpace=wrap;html=1;" vertex="1" parent="1">
          <mxGeometry x="200" y="110" width="59" height="90" as="geometry" />
        </mxCell>
        <mxCell id="0J3DgRATpNI2_s6_5cfx-10" style="edgeStyle=orthogonalEdgeStyle;rounded=0;orthogonalLoop=1;jettySize=auto;html=1;entryX=0;entryY=0.5;entryDx=0;entryDy=0;" edge="1" parent="1" source="0J3DgRATpNI2_s6_5cfx-3" target="0J3DgRATpNI2_s6_5cfx-4">
          <mxGeometry relative="1" as="geometry" />
        </mxCell>
        <mxCell id="0J3DgRATpNI2_s6_5cfx-3" value="DENSE" style="rounded=0;whiteSpace=wrap;html=1;" vertex="1" parent="1">
          <mxGeometry x="300" y="110" width="60" height="90" as="geometry" />
        </mxCell>
        <mxCell id="0J3DgRATpNI2_s6_5cfx-11" style="edgeStyle=orthogonalEdgeStyle;rounded=0;orthogonalLoop=1;jettySize=auto;html=1;entryX=0;entryY=0.5;entryDx=0;entryDy=0;" edge="1" parent="1" source="0J3DgRATpNI2_s6_5cfx-4" target="0J3DgRATpNI2_s6_5cfx-5">
          <mxGeometry relative="1" as="geometry" />
        </mxCell>
        <mxCell id="0J3DgRATpNI2_s6_5cfx-4" value="RELU" style="rounded=0;whiteSpace=wrap;html=1;" vertex="1" parent="1">
          <mxGeometry x="400" y="110" width="60" height="90" as="geometry" />
        </mxCell>
        <mxCell id="0J3DgRATpNI2_s6_5cfx-12" style="edgeStyle=orthogonalEdgeStyle;rounded=0;orthogonalLoop=1;jettySize=auto;html=1;exitX=1;exitY=0.5;exitDx=0;exitDy=0;entryX=0;entryY=0.5;entryDx=0;entryDy=0;" edge="1" parent="1" source="0J3DgRATpNI2_s6_5cfx-5" target="0J3DgRATpNI2_s6_5cfx-6">
          <mxGeometry relative="1" as="geometry" />
        </mxCell>
        <mxCell id="0J3DgRATpNI2_s6_5cfx-5" value="DENSE" style="rounded=0;whiteSpace=wrap;html=1;" vertex="1" parent="1">
          <mxGeometry x="500" y="110" width="60" height="90" as="geometry" />
        </mxCell>
        <mxCell id="0J3DgRATpNI2_s6_5cfx-13" style="edgeStyle=orthogonalEdgeStyle;rounded=0;orthogonalLoop=1;jettySize=auto;html=1;exitX=1;exitY=0.5;exitDx=0;exitDy=0;entryX=0;entryY=0.5;entryDx=0;entryDy=0;" edge="1" parent="1" source="0J3DgRATpNI2_s6_5cfx-6" target="0J3DgRATpNI2_s6_5cfx-7">
          <mxGeometry relative="1" as="geometry">
            <Array as="points">
              <mxPoint x="650" y="150" />
              <mxPoint x="790" y="150" />
            </Array>
          </mxGeometry>
        </mxCell>
        <mxCell id="0J3DgRATpNI2_s6_5cfx-6" value="SIGMOID" style="rounded=0;whiteSpace=wrap;html=1;" vertex="1" parent="1">
          <mxGeometry x="590" y="110" width="60" height="90" as="geometry" />
        </mxCell>
        <mxCell id="0J3DgRATpNI2_s6_5cfx-7" value="X" style="ellipse;whiteSpace=wrap;html=1;aspect=fixed;" vertex="1" parent="1">
          <mxGeometry x="790" y="135" width="40" height="40" as="geometry" />
        </mxCell>
        <mxCell id="0J3DgRATpNI2_s6_5cfx-14" value="" style="endArrow=classic;html=1;rounded=0;entryX=0.5;entryY=1;entryDx=0;entryDy=0;" edge="1" parent="1" target="0J3DgRATpNI2_s6_5cfx-15">
          <mxGeometry width="50" height="50" relative="1" as="geometry">
            <mxPoint x="160" y="150" as="sourcePoint" />
            <mxPoint x="740" y="180" as="targetPoint" />
            <Array as="points">
              <mxPoint x="160" y="240" />
              <mxPoint x="710" y="240" />
            </Array>
          </mxGeometry>
        </mxCell>
        <mxCell id="0J3DgRATpNI2_s6_5cfx-15" value="RESHAPE" style="rounded=0;whiteSpace=wrap;html=1;" vertex="1" parent="1">
          <mxGeometry x="680" y="110" width="60" height="90" as="geometry" />
        </mxCell>
        <mxCell id="0J3DgRATpNI2_s6_5cfx-16" value="(224,224,3)" style="text;html=1;align=center;verticalAlign=middle;resizable=0;points=[];autosize=1;strokeColor=none;fillColor=none;" vertex="1" parent="1">
          <mxGeometry x="40" y="60" width="80" height="30" as="geometry" />
        </mxCell>
        <mxCell id="0J3DgRATpNI2_s6_5cfx-17" value="(none,1920)" style="text;html=1;align=center;verticalAlign=middle;resizable=0;points=[];autosize=1;strokeColor=none;fillColor=none;" vertex="1" parent="1">
          <mxGeometry x="200" y="60" width="90" height="30" as="geometry" />
        </mxCell>
        <mxCell id="0J3DgRATpNI2_s6_5cfx-18" value="(none,120)" style="text;html=1;align=center;verticalAlign=middle;resizable=0;points=[];autosize=1;strokeColor=none;fillColor=none;" vertex="1" parent="1">
          <mxGeometry x="290" y="60" width="80" height="30" as="geometry" />
        </mxCell>
        <mxCell id="0J3DgRATpNI2_s6_5cfx-19" value="(none,120)" style="text;html=1;align=center;verticalAlign=middle;resizable=0;points=[];autosize=1;strokeColor=none;fillColor=none;" vertex="1" parent="1">
          <mxGeometry x="390" y="60" width="80" height="30" as="geometry" />
        </mxCell>
        <mxCell id="0J3DgRATpNI2_s6_5cfx-20" value="(none,1920)" style="text;html=1;align=center;verticalAlign=middle;resizable=0;points=[];autosize=1;strokeColor=none;fillColor=none;" vertex="1" parent="1">
          <mxGeometry x="485" y="60" width="90" height="30" as="geometry" />
        </mxCell>
        <mxCell id="0J3DgRATpNI2_s6_5cfx-21" value="(none,1920)" style="text;html=1;align=center;verticalAlign=middle;resizable=0;points=[];autosize=1;strokeColor=none;fillColor=none;" vertex="1" parent="1">
          <mxGeometry x="575" y="60" width="90" height="30" as="geometry" />
        </mxCell>
        <mxCell id="0J3DgRATpNI2_s6_5cfx-22" value="(none,1,1,1920)" style="text;html=1;align=center;verticalAlign=middle;resizable=0;points=[];autosize=1;strokeColor=none;fillColor=none;" vertex="1" parent="1">
          <mxGeometry x="655" y="60" width="110" height="30" as="geometry" />
        </mxCell>
      </root>
    </mxGraphModel>
  </diagram>
</mxfile>
